<svg xmlns="http://www.w3.org/2000/svg" viewBox="0 0 24 24"><g><path d="M12 14.315c-2.088 0-3.787-1.698-3.787-3.786S9.913 6.74 12 6.74s3.787 1.7 3.787 3.787-1.7 3.785-3.787 3.785zm0-6.073c-1.26 0-2.287 1.026-2.287 2.287S10.74 12.814 12 12.814s2.287-1.025 2.287-2.286S13.26 8.24 12 8.24z"></path><path d="M20.692 10.69C20.692 5.9 16.792 2 12 2s-8.692 3.9-8.692 8.69a8.62 8.62 0 0 0 1.743 5.223l.003-.002.007.015c1.628 2.07 6.278 5.757 6.475 5.912a.743.743 0 0 0 .93.001c.197-.155 4.847-3.84 6.475-5.912l.007-.014.002.002a8.62 8.62 0 0 0 1.742-5.223zM12 20.29c-1.224-.99-4.52-3.715-5.756-5.285a7.12 7.12 0 0 1-1.436-4.312C4.808 6.727 8.035 3.5 12 3.5s7.192 3.226 7.192 7.19c0 1.57-.497 3.062-1.436 4.313-1.236 1.57-4.532 4.294-5.756 5.285z"></path></g></svg>
